<svg width="44" height="50" viewBox="0 0 44 50" fill="none" xmlns="http://www.w3.org/2000/svg">
<g id="academicons:africarxiv">
<g id="academiconsAfricarxiv0">
<g id="academiconsAfricarxiv1">
<mask id="path-1-inside-1_166_2432" fill="white">
<path d="M16.2927 0.782217C15.3289 0.765323 14.3884 0.967959 13.4648 1.52929L13.4657 1.52675C13.0103 1.8038 12.5311 2.20517 12.0767 2.30224C10.5899 2.62079 9.33599 3.46796 7.92066 3.91796C7.24741 4.13153 6.92359 4.54364 6.9438 5.24159C6.66763 5.74189 6.23169 6.05507 5.72515 6.29433C5.27642 6.50546 4.84888 6.74667 4.71529 7.27919C4.71314 7.28095 4.71089 7.28251 4.70874 7.28437C4.18101 7.89941 3.62603 8.49316 3.08784 9.41259L19.5886 3.99745C18.8748 3.31884 18.1335 2.74452 18.9585 1.70321C18.2186 1.75351 17.6955 2.18271 17.0721 2.08632C17.4258 1.55995 18.1828 1.67138 18.5872 1.15429C17.8062 0.941202 17.0423 0.795303 16.2927 0.782217ZM25.1477 4.06796C24.4524 4.11112 23.7834 4.16601 23.2064 4.66542C22.5209 5.25487 21.7503 5.42235 20.973 4.76679C20.3863 4.27167 19.8145 4.36542 19.1492 4.68749C17.6128 5.4331 16.037 6.09931 14.4787 6.79726C10.8638 8.42409 7.24982 10.0527 3.63657 11.683C2.4815 12.0607 2.43032 12.1657 2.69595 13.3163C2.89009 14.1563 3.24038 15.0406 2.25474 15.6671C2.14672 15.716 2.05532 15.7954 1.99172 15.8955C1.92811 15.9955 1.89507 16.112 1.89663 16.2306C1.89566 16.2311 1.89478 16.2314 1.8938 16.2318C1.63794 17.1258 1.85249 17.9948 2.01489 18.8728C2.11812 19.4287 2.37661 19.4075 2.80366 19.2046C3.76988 18.744 4.75025 18.3125 5.72964 17.881C8.82632 16.5197 11.9236 15.1594 15.0213 13.8C15.1082 13.8035 15.1951 13.7956 15.2798 13.7764C15.1793 13.8295 15.0863 13.8926 15.0355 14.0109L11.8588 15.8727L7.07534 18.3098C5.70493 18.5463 4.51636 19.2866 3.21743 19.7066C2.41353 19.966 2.57329 20.2459 3.12124 20.6067C3.63394 21.2244 4.38931 21.377 5.09781 21.6171C5.09878 21.6165 5.09976 21.6161 5.10073 21.6154C5.64976 21.8728 6.19546 22.1389 6.75064 22.3838C7.26685 22.6133 7.74673 22.6926 8.06089 22.0379C8.23745 21.6664 8.55864 21.6125 8.94331 21.7891C9.54273 22.0683 10.1773 22.0767 10.8189 21.9658L10.8183 21.9664C10.8197 21.9665 10.821 21.9664 10.8222 21.9666L10.8254 21.9692L10.8299 21.9672C11.0731 21.9884 11.3132 21.9915 11.5243 21.8369C11.8146 21.8369 12.1075 21.814 12.3943 21.8431C13.7602 21.9825 15.1826 21.5183 16.4982 22.2454C16.748 22.383 16.9809 22.1104 17.2042 21.9967C19.5747 20.7834 21.9424 19.5648 24.3074 18.3407C27.4487 16.7219 30.589 15.1033 33.728 13.485C33.9971 13.3456 34.6103 13.2848 34.0756 12.7403V12.7358C33.709 11.9975 33.3805 11.245 33.2504 10.4224C33.2514 10.4214 33.2522 10.4204 33.253 10.4194C33.2115 9.80624 33.0024 9.24423 32.7376 8.6954C32.5082 8.22509 32.2498 8.09433 31.7141 8.33261C30.4744 8.88495 29.2027 9.38896 27.9321 9.84335C26.6614 10.2978 25.4816 11.0116 24.1157 11.1969C24.1143 11.1967 24.1129 11.1967 24.1116 11.1964L24.1123 11.196C24.0999 10.9868 24.2886 11.0106 24.4025 10.9472L31.1426 7.19433C31.1673 6.56513 30.9415 5.9995 30.7014 5.43827C30.701 5.43859 30.7005 5.43883 30.7 5.43896L30.7002 5.43827C30.3773 4.6203 29.8109 4.38105 28.992 4.70839C28.4369 4.9384 27.8453 5.06811 27.2448 5.09149V5.08964L27.2405 5.0912L26.7737 5.05351C26.1171 4.91317 25.7043 4.37226 25.1474 4.06786L25.1477 4.06796ZM35.0677 14.7132C34.9151 14.7224 34.7425 14.7864 34.539 14.8933C32.0542 16.1966 29.5472 17.4573 27.0474 18.7307C24.1099 20.2307 21.1679 21.7149 18.2411 23.2309C18.0567 23.3253 17.5389 23.3051 17.786 23.7665C18.1086 24.3671 18.0109 25.0019 18.0275 25.6316C18.0272 25.6316 18.0269 25.6319 18.0266 25.632V25.6346C18.0196 25.9432 18.0132 26.2514 18.0074 26.5594C18.0761 27.0535 18.2572 27.5254 18.5368 27.9387L18.5399 27.9393L18.5376 27.9403L18.895 28.416L19.7324 29.4642C19.8753 30.4392 20.372 30.4498 21.2104 30.1631C24.2494 29.1219 27.3184 28.1653 30.3759 27.177L30.5524 27.3589C30.5532 27.3587 30.554 27.3586 30.5548 27.3585L27.2223 28.9356C26.6672 29.0839 26.1634 29.3434 25.6648 29.6248C25.5917 29.6166 25.5178 29.6288 25.4512 29.6599C25.3846 29.6911 25.3279 29.74 25.2873 29.8013C23.9635 30.2937 22.6739 30.8732 21.4267 31.536C21.4062 31.5264 21.3827 31.525 21.3611 31.5322C21.3396 31.5395 21.3217 31.5547 21.3111 31.5748C21.0423 31.6041 20.7899 31.7181 20.5902 31.9004C20.1269 32.0045 19.6062 32.1555 19.6309 32.7078C19.6926 34.0887 19.2135 35.3442 18.8571 36.6324L18.8562 36.6327C18.7466 36.8237 18.6982 37.0437 18.7176 37.2631C18.7371 37.4824 18.8233 37.6905 18.9648 37.8593C19.2366 38.1849 19.5974 37.801 19.8957 37.6925C24.4221 36.0513 28.9447 34.3998 33.4635 32.7378C34.0609 32.5189 34.8275 32.4219 35.1902 31.9939C35.5802 31.5324 35.0525 30.7886 35.0931 30.1558C35.1441 29.8844 35.1959 29.6129 35.2469 29.3404C35.2471 29.34 35.2472 29.3398 35.2477 29.3396C35.5195 28.5041 36.1848 27.889 36.5246 27.0913L38.0741 24.9384C38.4032 24.2325 39.2105 24.01 39.6393 23.4039L39.6193 23.4107L39.6349 23.4021C40.557 22.8365 40.9513 21.8782 41.6007 20.8811L37.4078 22.1693C37.1703 22.185 36.9365 22.2198 36.7047 22.2646C36.8277 22.1937 36.9356 22.0993 37.0222 21.9867C37.2799 21.8632 37.5402 21.7424 37.796 21.6144C39.1461 20.9403 40.6277 20.5476 41.8983 19.704C41.8641 19.6976 41.833 19.6799 41.8101 19.6537C41.8392 19.6695 41.8683 19.6854 41.8983 19.704C42.021 19.336 41.9751 18.9618 41.9054 18.5974L41.908 18.6027C41.8091 18.0865 41.5824 17.8218 41.0256 18.1941C40.6738 18.4462 40.268 18.6127 39.8406 18.6805C39.8395 18.6811 39.8384 18.6818 39.8373 18.6825C39.8373 18.6812 39.8376 18.6799 39.838 18.6786C39.0642 18.6203 38.2656 18.6354 37.7344 17.9093H37.737C37.4881 17.5678 37.2235 17.8139 36.9711 17.9144C35.0208 18.6981 33.0709 19.4832 31.1216 20.2696C30.9753 20.2832 30.8355 20.3165 30.6985 20.3598C30.7822 20.2787 30.8556 20.1875 30.9055 20.0728C32.3151 19.3418 33.7234 18.6083 35.1303 17.8722C35.7436 17.551 36.746 17.3198 36.8625 16.8663C37.0143 16.2785 36.0622 15.7958 35.7154 15.1781C35.5213 14.8346 35.3223 14.6978 35.0679 14.7132H35.0677ZM35.323 32.8457C35.2381 32.84 35.1291 32.8645 34.989 32.9222C30.0643 34.9548 25.1349 36.9761 20.2009 38.986C19.8242 39.1432 19.7429 39.2808 19.9363 39.6726C20.4074 40.6254 20.8406 41.5985 21.0834 42.6423C21.0828 42.6424 21.0822 42.6425 21.0816 42.6426H21.0834V42.6437C21.1125 42.9305 21.1822 43.2209 21.1636 43.5051C21.1195 44.1625 21.2386 44.3644 21.9534 44.0468C25.2235 42.5907 28.529 41.216 31.7982 39.7592C33.1898 39.1389 34.1375 38.0368 34.7189 36.625C34.7178 36.6251 34.7167 36.6252 34.7156 36.6253C34.7164 36.625 34.7167 36.6246 34.7174 36.6238C35.561 35.6585 35.6925 34.5044 35.5999 33.292C35.5786 33.0166 35.5098 32.8579 35.3232 32.8456L35.323 32.8457ZM40.7523 34.6501C40.3592 34.653 40.1021 35.0593 39.9199 35.4228C39.757 35.7468 39.639 36.0935 39.5009 36.4307L39.4998 36.4317C39.2581 36.9303 39.0647 37.3758 38.2979 37.254C37.7587 37.1684 37.0193 37.5964 37.0713 38.1072C37.179 39.174 36.4652 40.0874 36.684 41.1286C36.7682 41.2059 36.8501 41.2351 36.9308 41.2372C36.8335 41.2962 36.7425 41.3668 36.6655 41.4622C36.5295 41.9802 36.3813 42.4964 36.5252 43.039C36.5259 43.039 36.5266 43.0387 36.5278 43.0387C36.9479 43.9641 37.2634 44.0818 38.1712 43.8226C39.2709 43.5072 39.2664 42.5706 39.4483 41.7253C39.6149 41.2923 39.7374 40.8548 39.6872 40.339L38.0988 40.8207L38.0978 40.8251C37.9729 40.872 37.8302 40.8364 37.7049 40.8884C37.786 40.8238 37.858 40.7481 37.9125 40.6513C38.1825 40.4933 38.4391 40.3019 38.7259 40.1819C40.7139 39.3552 41.0361 37.6124 41.1852 35.77C41.194 35.3755 41.4675 34.8249 40.9293 34.6749C40.8718 34.6584 40.8122 34.6501 40.7523 34.6503V34.6501ZM31.792 40.4287C28.4468 42.1556 25.2509 43.841 22.0161 45.4478C21.1848 45.8617 21.0383 46.3117 21.4663 47.0574C21.6479 47.7312 22.1206 48.1554 22.7007 48.4889V48.4896L22.7013 48.4894C22.7014 48.4894 22.7016 48.4894 22.7017 48.4896L22.7035 48.4899C22.9186 48.7787 23.2218 48.8913 23.5638 48.9282C24.7753 49.643 26.2215 48.9978 26.8877 47.4448C27.7349 46.9648 28.5767 46.4654 29.4309 45.9942C29.9794 45.6917 30.366 45.3177 30.2359 44.6291C30.2362 44.6288 30.2362 44.6283 30.2366 44.628C30.3999 44.1754 30.984 44.0624 31.0952 43.5691C30.9956 42.5041 31.8936 41.6278 31.793 40.4305L31.792 40.4287Z"/>
</mask>
<path d="M16.2927 0.782217L16.2752 1.78206L16.2753 1.78207L16.2927 0.782217ZM13.4648 1.52929L12.5198 1.20209L11.6113 3.82591L13.9841 2.38385L13.4648 1.52929ZM13.4657 1.52675L14.4106 1.85395L15.3198 -0.771875L12.9459 0.67244L13.4657 1.52675ZM12.0767 2.30224L11.8678 1.3243L11.8672 1.32443L12.0767 2.30224ZM7.92066 3.91796L8.22304 4.87115L8.22366 4.87095L7.92066 3.91796ZM6.9438 5.24159L7.81927 5.72487L7.95129 5.48571L7.94338 5.21264L6.9438 5.24159ZM5.72515 6.29433L6.15089 7.19917L6.15224 7.19854L5.72515 6.29433ZM4.71529 7.27919L5.34852 8.05315L5.60469 7.84356L5.68523 7.52252L4.71529 7.27919ZM4.70874 7.28437L4.05512 6.52754L3.99852 6.57642L3.94983 6.63318L4.70874 7.28437ZM3.08784 9.41259L2.22482 8.90742L0.891084 11.186L3.39966 10.3627L3.08784 9.41259ZM19.5886 3.99745L19.9004 4.9476L21.4906 4.42575L20.2776 3.27267L19.5886 3.99745ZM18.9585 1.70321L19.7424 2.32421L21.1463 0.552209L18.8907 0.705515L18.9585 1.70321ZM17.0721 2.08632L16.2421 1.52857L15.3648 2.83419L16.9193 3.07457L17.0721 2.08632ZM18.5872 1.15429L19.3749 1.77033L20.3015 0.58549L18.8504 0.189554L18.5872 1.15429ZM25.1477 4.06796L25.2097 5.06604L25.4647 3.11952L25.1477 4.06796ZM23.2064 4.66542L23.8584 5.42367L23.8608 5.42156L23.2064 4.66542ZM20.973 4.76679L20.3281 5.53103L20.3283 5.53123L20.973 4.76679ZM19.1492 4.68749L18.7135 3.7874L18.7126 3.78784L19.1492 4.68749ZM14.4787 6.79726L14.0699 5.88461L14.0683 5.88535L14.4787 6.79726ZM3.63657 11.683L3.9474 12.6335L3.99868 12.6167L4.04786 12.5945L3.63657 11.683ZM2.69595 13.3163L1.72158 13.5412L1.72163 13.5415L2.69595 13.3163ZM2.25474 15.6671L2.66737 16.578L2.73162 16.5489L2.79115 16.511L2.25474 15.6671ZM1.89663 16.2306L2.41113 17.0881L2.90413 16.7923L2.89655 16.2174L1.89663 16.2306ZM1.8938 16.2318L1.52241 15.3034L1.06729 15.4854L0.932404 15.9567L1.8938 16.2318ZM2.01489 18.8728L1.03157 19.0547L1.0317 19.0554L2.01489 18.8728ZM2.80366 19.2046L3.23286 20.1078L3.23394 20.1073L2.80366 19.2046ZM5.72964 17.881L5.3272 16.9656L5.3265 16.9659L5.72964 17.881ZM15.0213 13.8L15.0617 12.8008L14.831 12.7915L14.6195 12.8843L15.0213 13.8ZM15.2798 13.7764L15.7469 14.6606L15.0589 12.8011L15.2798 13.7764ZM15.0355 14.0109L15.5411 14.8737L15.8248 14.7074L15.9545 14.4052L15.0355 14.0109ZM11.8588 15.8727L12.3128 16.7638L12.3391 16.7504L12.3645 16.7355L11.8588 15.8727ZM7.07534 18.3098L7.24542 19.2952L7.3945 19.2695L7.52929 19.2008L7.07534 18.3098ZM3.21743 19.7066L3.52449 20.6583L3.52511 20.6581L3.21743 19.7066ZM3.12124 20.6067L3.89071 19.968L3.7956 19.8535L3.67123 19.7716L3.12124 20.6067ZM5.09781 21.6171L4.77692 22.5642L5.21535 22.7127L5.6123 22.4746L5.09781 21.6171ZM5.10073 21.6154L5.52526 20.71L5.00133 20.4643L4.52727 20.7962L5.10073 21.6154ZM6.75064 22.3838L7.15687 21.47L7.15427 21.4689L6.75064 22.3838ZM8.06089 22.0379L8.96247 22.4705L8.96407 22.4672L8.06089 22.0379ZM8.94331 21.7891L9.36567 20.8826L9.36047 20.8802L8.94331 21.7891ZM10.8189 21.9658L11.5265 22.6725L13.7518 20.4443L10.6487 20.9804L10.8189 21.9658ZM10.8183 21.9664L10.1108 21.2597L8.5645 22.808L10.7471 22.9639L10.8183 21.9664ZM10.8222 21.9666L11.4554 21.1926L11.2493 21.024L10.9866 20.9802L10.8222 21.9666ZM10.8254 21.9692L10.1923 22.7432L10.6742 23.1375L11.2406 22.879L10.8254 21.9692ZM10.8299 21.9672L10.9168 20.971L10.6544 20.9481L10.4147 21.0574L10.8299 21.9672ZM11.5243 21.8369V20.8369H11.1972L10.9333 21.0302L11.5243 21.8369ZM12.3943 21.8431L12.4959 20.8482L12.4952 20.8482L12.3943 21.8431ZM16.4982 22.2454L16.0145 23.1206L16.0157 23.1213L16.4982 22.2454ZM17.2042 21.9967L17.6582 22.8876L17.6598 22.8869L17.2042 21.9967ZM24.3074 18.3407L23.8493 17.4518L23.8477 17.4526L24.3074 18.3407ZM33.728 13.485L34.1862 14.3738L34.1878 14.373L33.728 13.485ZM34.0756 12.7403H33.0756V13.1492L33.3622 13.441L34.0756 12.7403ZM34.0756 12.7358H35.0756V12.5012L34.9713 12.2911L34.0756 12.7358ZM33.2504 10.4224L32.5433 9.71525L32.1832 10.0754L32.2627 10.5785L33.2504 10.4224ZM33.253 10.4194L34.0339 11.0441L34.277 10.7402L34.2507 10.3519L33.253 10.4194ZM32.7376 8.6954L33.6383 8.26092L33.6364 8.25687L32.7376 8.6954ZM31.7141 8.33261L31.3077 7.41893L31.3071 7.41916L31.7141 8.33261ZM27.9321 9.84335L27.5953 8.90175L27.5953 8.90177L27.9321 9.84335ZM24.1157 11.1969L23.9743 12.1868L24.1121 12.2065L24.2501 12.1878L24.1157 11.1969ZM24.1116 11.1964L23.6158 10.3279L21.3423 11.6257L23.902 12.1742L24.1116 11.1964ZM24.1123 11.196L24.608 12.0645L25.1473 11.7566L25.1105 11.1368L24.1123 11.196ZM24.4025 10.9472L23.916 10.0735L23.9156 10.0737L24.4025 10.9472ZM31.1426 7.19433L31.6291 8.06803L32.1198 7.7948L32.1419 7.23356L31.1426 7.19433ZM30.7014 5.43827L31.6209 5.04503L31.1245 3.88446L30.1083 4.63319L30.7014 5.43827ZM30.7 5.43896L29.7804 5.04606L28.996 6.88189L30.936 6.4107L30.7 5.43896ZM30.7002 5.43827L31.6198 5.83116L31.7813 5.45327L31.6304 5.07104L30.7002 5.43827ZM28.992 4.70839L28.6208 3.77976L28.6093 3.78454L28.992 4.70839ZM27.2448 5.09149H26.2448V6.1312L27.2837 6.09074L27.2448 5.09149ZM27.2448 5.08964H28.2448V3.66204L26.9031 4.14982L27.2448 5.08964ZM27.2405 5.0912L27.16 6.08796L27.3773 6.1055L27.5822 6.03102L27.2405 5.0912ZM26.7737 5.05351L26.5647 6.03142L26.6283 6.04502L26.6932 6.05026L26.7737 5.05351ZM25.1474 4.06786L25.4644 3.11942L24.6678 4.94532L25.1474 4.06786ZM35.0677 14.7132V13.7132H35.0377L35.0077 13.715L35.0677 14.7132ZM34.539 14.8933L35.0035 15.7788L35.0038 15.7787L34.539 14.8933ZM27.0474 18.7307L26.5935 17.8396L26.5926 17.84L27.0474 18.7307ZM18.2411 23.2309L18.6969 24.1209L18.701 24.1188L18.2411 23.2309ZM17.786 23.7665L16.9044 24.2385L16.9051 24.2398L17.786 23.7665ZM18.0275 25.6316V26.6316H19.0542L19.0271 25.6053L18.0275 25.6316ZM18.0266 25.632L17.7104 24.6833L17.0266 24.9113V25.632H18.0266ZM18.0266 25.6346L19.0264 25.6573L19.0266 25.646V25.6346H18.0266ZM18.0074 26.5594L17.0076 26.5403L17.0061 26.6191L17.0169 26.6972L18.0074 26.5594ZM18.5368 27.9387L17.7085 28.4989L17.9326 28.8303L18.3235 28.9157L18.5368 27.9387ZM18.5399 27.9393L18.9388 28.8563L21.7758 27.6222L18.7532 26.9624L18.5399 27.9393ZM18.5376 27.9403L18.1387 27.0233L16.9776 27.5285L17.7381 28.5409L18.5376 27.9403ZM18.895 28.416L18.0954 29.0166L18.1044 29.0285L18.1137 29.0402L18.895 28.416ZM19.7324 29.4642L20.7218 29.3192L20.6825 29.0515L20.5137 28.8401L19.7324 29.4642ZM21.2104 30.1631L21.534 31.1093L21.5345 31.1091L21.2104 30.1631ZM30.3759 27.177L31.0936 26.4806L30.6603 26.0342L30.0684 26.2255L30.3759 27.177ZM30.5524 27.3589L29.8348 28.0553L30.1965 28.428L30.7094 28.3465L30.5524 27.3589ZM30.5548 27.3585L30.9826 28.2624L30.3959 26.3712L30.5548 27.3585ZM27.2223 28.9356L27.4803 29.9018L27.568 29.8784L27.6501 29.8395L27.2223 28.9356ZM25.6648 29.6248L25.5539 30.6186L25.875 30.6545L26.1563 30.4957L25.6648 29.6248ZM25.2873 29.8013L25.6359 30.7385L25.9411 30.625L26.1209 30.3536L25.2873 29.8013ZM21.4267 31.536L21.0017 32.4412L21.4544 32.6538L21.896 32.4191L21.4267 31.536ZM21.3111 31.5748L21.4195 32.5689L21.9481 32.5113L22.1958 32.0408L21.3111 31.5748ZM20.5902 31.9004L20.8094 32.8761L21.0683 32.8179L21.2643 32.639L20.5902 31.9004ZM19.6309 32.7078L20.6299 32.6632L20.6299 32.6631L19.6309 32.7078ZM18.8571 36.6324L19.1728 37.5813L19.6787 37.4129L19.8209 36.8991L18.8571 36.6324ZM18.8562 36.6327L18.5405 35.6839L18.1787 35.8042L17.9889 36.1349L18.8562 36.6327ZM18.9648 37.8593L19.7325 37.2184L19.7311 37.2168L18.9648 37.8593ZM19.8957 37.6925L19.5548 36.7524L19.5538 36.7527L19.8957 37.6925ZM33.4635 32.7378L33.1195 31.7988L33.1183 31.7992L33.4635 32.7378ZM35.1902 31.9939L35.953 32.6405L35.954 32.6394L35.1902 31.9939ZM35.0931 30.1558L34.1103 29.9713L34.0991 30.0311L34.0952 30.0918L35.0931 30.1558ZM35.2469 29.3404L34.3525 28.8932L34.2898 29.0187L34.264 29.1565L35.2469 29.3404ZM35.2477 29.3396L35.6191 30.2681L36.0538 30.0942L36.1987 29.649L35.2477 29.3396ZM36.5246 27.0913L35.7129 26.5071L35.6481 26.5973L35.6045 26.6994L36.5246 27.0913ZM38.0741 24.9384L38.8857 25.5225L38.9407 25.4462L38.9804 25.3609L38.0741 24.9384ZM39.6393 23.4039L40.4557 23.9814L42.2398 21.4594L39.3162 22.4575L39.6393 23.4039ZM39.6193 23.4107L39.1374 22.5345L39.9424 24.3571L39.6193 23.4107ZM39.6349 23.4021L40.1168 24.2784L40.1376 24.2669L40.1578 24.2545L39.6349 23.4021ZM41.6007 20.8811L42.4387 21.4269L43.9445 19.115L41.3071 19.9252L41.6007 20.8811ZM37.4078 22.1693L37.4734 23.1672L37.5899 23.1595L37.7014 23.1252L37.4078 22.1693ZM36.7047 22.2646L36.2051 21.3984L36.8946 23.2464L36.7047 22.2646ZM37.0222 21.9867L36.59 21.085L36.375 21.188L36.2297 21.3769L37.0222 21.9867ZM37.796 21.6144L37.3493 20.7198L37.3488 20.72L37.796 21.6144ZM41.8983 19.704L42.4514 20.5371L42.7381 20.3467L42.847 20.0202L41.8983 19.704ZM41.8101 19.6537L42.2877 18.7751L41.0567 20.3112L41.8101 19.6537ZM41.9054 18.5974L42.8095 18.17L40.9232 18.785L41.9054 18.5974ZM41.908 18.6027L41.0039 19.0301L42.8901 18.4147L41.908 18.6027ZM41.0256 18.1941L40.4697 17.3629L40.4563 17.3718L40.4433 17.3812L41.0256 18.1941ZM39.8406 18.6805L39.684 17.6928L39.4856 17.7242L39.3147 17.8299L39.8406 18.6805ZM39.8373 18.6825L38.8386 18.6313L38.7411 20.534L40.3624 19.5335L39.8373 18.6825ZM39.838 18.6786L40.7796 19.0155L41.2216 17.78L39.9132 17.6814L39.838 18.6786ZM37.7344 17.9093V16.9093H35.764L36.9273 18.4996L37.7344 17.9093ZM37.737 17.9093V18.9093H39.7029L38.5452 17.3204L37.737 17.9093ZM36.9711 17.9144L36.6009 16.9855L36.5983 16.9865L36.9711 17.9144ZM31.1216 20.2696L31.214 21.2653L31.3599 21.2518L31.4958 21.197L31.1216 20.2696ZM30.6985 20.3598L30.0028 19.6414L30.9996 21.3133L30.6985 20.3598ZM30.9055 20.0728L30.4452 19.1851L30.1302 19.3484L29.9886 19.6737L30.9055 20.0728ZM35.1303 17.8722L35.5939 18.7582L35.5943 18.758L35.1303 17.8722ZM36.8625 16.8663L35.8943 16.6163L35.894 16.6175L36.8625 16.8663ZM35.7154 15.1781L36.5874 14.6886L36.5861 14.6863L35.7154 15.1781ZM35.0679 14.7132V15.7132H35.098L35.1281 15.7114L35.0679 14.7132ZM35.323 32.8457L35.2564 33.8435L35.5273 33.8616L35.7702 33.7401L35.323 32.8457ZM34.989 32.9222L34.6085 31.9974L34.6075 31.9978L34.989 32.9222ZM20.2009 38.986L19.8237 38.0599L19.816 38.0631L20.2009 38.986ZM19.9363 39.6726L19.0395 40.1151L19.0399 40.1158L19.9363 39.6726ZM21.0834 42.6423L21.2484 43.6286L22.2986 43.4528L22.0574 42.4157L21.0834 42.6423ZM21.0816 42.6426L20.9178 41.6561L21.0816 43.6426V42.6426ZM21.0834 42.6426H22.0834V41.6426H21.0834V42.6426ZM21.0834 42.6437H20.0834V42.6944L20.0885 42.7447L21.0834 42.6437ZM21.1636 43.5051L22.1614 43.5721L22.1615 43.5702L21.1636 43.5051ZM21.9534 44.0468L22.3595 44.9606L22.3601 44.9603L21.9534 44.0468ZM31.7982 39.7592L32.2052 40.6726L32.2053 40.6725L31.7982 39.7592ZM34.7189 36.625L35.6436 37.0058L36.2697 35.4856L34.6318 35.6288L34.7189 36.625ZM34.7156 36.6253L34.3645 35.689L34.8042 37.6213L34.7156 36.6253ZM34.7174 36.6238L35.4245 37.3309L35.4483 37.3072L35.4704 37.2818L34.7174 36.6238ZM35.5999 33.292L36.5969 33.2158L36.5969 33.2149L35.5999 33.292ZM35.3232 32.8456L35.389 31.8478L35.1185 31.8299L34.876 31.9512L35.3232 32.8456ZM40.7523 34.6501H41.7523V33.6426L40.7448 33.6501L40.7523 34.6501ZM39.9199 35.4228L40.8133 35.8721L40.8139 35.8709L39.9199 35.4228ZM39.5009 36.4307L40.1765 37.168L40.3415 37.0168L40.4263 36.8097L39.5009 36.4307ZM39.4998 36.4317L38.8242 35.6944L38.6833 35.8235L38.5999 35.9955L39.4998 36.4317ZM38.2979 37.254L38.141 38.2416L38.1411 38.2416L38.2979 37.254ZM37.0713 38.1072L38.0663 38.0068L38.0662 38.0058L37.0713 38.1072ZM36.684 41.1286L35.7054 41.3343L35.7714 41.6484L36.0079 41.8654L36.684 41.1286ZM36.9308 41.2372L37.449 42.0925L40.3612 40.3282L36.9574 40.2376L36.9308 41.2372ZM36.6655 41.4622L35.8875 40.8339L35.7527 41.0008L35.6982 41.2084L36.6655 41.4622ZM36.5252 43.039L35.5585 43.2952L35.7557 44.039H36.5252V43.039ZM36.5278 43.0387L37.4383 42.6253L37.172 42.0387H36.5278V43.0387ZM38.1712 43.8226L38.4458 44.7842L38.447 44.7839L38.1712 43.8226ZM39.4483 41.7253L38.515 41.3662L38.4871 41.4388L38.4707 41.5149L39.4483 41.7253ZM39.6872 40.339L40.6825 40.2421L40.5643 39.0279L39.3969 39.382L39.6872 40.339ZM38.0988 40.8207L37.8085 39.8637L37.2495 40.0333L37.1226 40.6036L38.0988 40.8207ZM38.0978 40.8251L38.4492 41.7613L38.9564 41.571L39.074 41.0422L38.0978 40.8251ZM37.7049 40.8884L37.082 40.1061L38.088 41.8121L37.7049 40.8884ZM37.9125 40.6513L37.4074 39.7882L37.1737 39.925L37.0409 40.161L37.9125 40.6513ZM38.7259 40.1819L38.3419 39.2586L38.3399 39.2594L38.7259 40.1819ZM41.1852 35.77L42.1819 35.8507L42.1843 35.8215L42.185 35.7923L41.1852 35.77ZM40.9293 34.6749L40.654 35.6363L40.6609 35.6382L40.9293 34.6749ZM40.7523 34.6503H39.7523V35.653L40.755 35.6503L40.7523 34.6503ZM31.792 40.4287L32.6661 39.9428L32.1949 39.0953L31.3333 39.5401L31.792 40.4287ZM22.0161 45.4478L21.5712 44.5522L21.5704 44.5527L22.0161 45.4478ZM21.4663 47.0574L22.4318 46.7971L22.3981 46.6721L22.3336 46.5597L21.4663 47.0574ZM22.7007 48.4889H23.7007V47.9102L23.1991 47.6219L22.7007 48.4889ZM22.7007 48.4896H21.7007V49.8737L23.0148 49.439L22.7007 48.4896ZM22.7013 48.4894V47.4894H22.5402L22.3873 47.54L22.7013 48.4894ZM22.7017 48.4896L21.8073 48.9369L22.0352 49.3926L22.5379 49.4761L22.7017 48.4896ZM22.7035 48.4899L23.5054 47.8925L23.2647 47.5695L22.8673 47.5034L22.7035 48.4899ZM23.5638 48.9282L24.0719 48.0669L23.8859 47.9572L23.6711 47.934L23.5638 48.9282ZM26.8877 47.4448L26.3948 46.5748L26.1016 46.7409L25.9687 47.0506L26.8877 47.4448ZM29.4309 45.9942L28.948 45.1186L28.9479 45.1186L29.4309 45.9942ZM30.2359 44.6291L29.5288 43.922L29.1552 44.2956L29.2533 44.8147L30.2359 44.6291ZM30.2366 44.628L30.8366 45.428L31.0758 45.2486L31.1772 44.9674L30.2366 44.628ZM31.0952 43.5691L32.0707 43.7889L32.1056 43.6341L32.0908 43.476L31.0952 43.5691ZM31.793 40.4305L32.7895 40.3467L32.7715 40.1325L32.667 39.9446L31.793 40.4305ZM16.3103 -0.217629C15.1822 -0.237402 14.0507 0.00300789 12.9454 0.674726L13.9841 2.38385C14.7261 1.93291 15.4756 1.76805 16.2752 1.78206L16.3103 -0.217629ZM14.4098 1.85649L14.4106 1.85395L12.5207 1.19955L12.5198 1.20209L14.4098 1.85649ZM12.9459 0.67244C12.8101 0.755073 12.6773 0.844025 12.5621 0.921518C12.4408 1.00316 12.3388 1.07228 12.2378 1.13588C12.022 1.27181 11.9133 1.31459 11.8678 1.3243L12.2856 3.28017C12.6946 3.19281 13.0526 2.98638 13.3038 2.82809C13.4364 2.74458 13.5679 2.65535 13.6788 2.58078C13.7957 2.50206 13.8936 2.43695 13.9854 2.38106L12.9459 0.67244ZM11.8672 1.32443C11.0098 1.50812 10.2403 1.83987 9.55754 2.15068C8.84763 2.47387 8.25257 2.7631 7.61766 2.96497L8.22366 4.87095C9.00408 4.62282 9.74364 4.26346 10.3862 3.97093C11.056 3.66602 11.6568 3.41491 12.2862 3.28005L11.8672 1.32443ZM7.61828 2.96477C7.15408 3.11203 6.69792 3.36345 6.37193 3.79847C6.04031 4.24101 5.92939 4.75837 5.94422 5.27054L7.94338 5.21264C7.94062 5.11727 7.95054 5.06093 7.95831 5.03233C7.96526 5.0067 7.97144 4.99913 7.97243 4.9978C7.97398 4.99574 7.98438 4.98186 8.01904 4.95975C8.05592 4.93622 8.11957 4.90397 8.22304 4.87115L7.61828 2.96477ZM6.06833 4.75832C5.93256 5.00427 5.70327 5.19872 5.29806 5.39012L6.15224 7.19854C6.76011 6.91142 7.4027 6.4795 7.81927 5.72487L6.06833 4.75832ZM5.29941 5.38948C4.85682 5.59772 4.00313 6.00828 3.74534 7.03586L5.68523 7.52252C5.69366 7.48892 5.70334 7.46771 5.751 7.42706C5.82108 7.36729 5.93398 7.30123 6.15089 7.19917L5.29941 5.38948ZM4.08205 6.50523C4.09113 6.4978 4.09835 6.49218 4.10171 6.48959C4.10342 6.48826 4.10471 6.48728 4.10491 6.48712C4.10607 6.48623 4.10394 6.48786 4.10358 6.48814C4.10161 6.48965 4.09532 6.49447 4.08754 6.50067C4.07947 6.50709 4.06822 6.51623 4.05512 6.52754L5.36236 8.04119C5.35034 8.05157 5.34018 8.05982 5.3332 8.06538C5.32651 8.07071 5.32132 8.07468 5.32045 8.07535C5.32016 8.07557 5.31995 8.07572 5.32004 8.07566C5.32006 8.07565 5.32007 8.07563 5.32011 8.0756C5.32015 8.07558 5.3202 8.07554 5.32026 8.07549C5.32037 8.0754 5.32055 8.07527 5.32076 8.07511C5.32152 8.07453 5.32335 8.07312 5.32561 8.07137C5.33006 8.06793 5.33837 8.06146 5.34852 8.05315L4.08205 6.50523ZM3.94983 6.63318C3.44565 7.22076 2.81908 7.89219 2.22482 8.90742L3.95087 9.91775C4.43297 9.09412 4.91637 8.57805 5.46766 7.93555L3.94983 6.63318ZM3.39966 10.3627L19.9004 4.9476L19.2768 3.04731L2.77603 8.46245L3.39966 10.3627ZM20.2776 3.27267C20.0741 3.07924 19.9318 2.95148 19.7986 2.81102C19.6707 2.67614 19.6186 2.59673 19.5987 2.55505C19.5883 2.53327 19.5982 2.55042 19.5948 2.57099C19.5942 2.57477 19.6058 2.49663 19.7424 2.32421L18.1747 1.08222C17.8988 1.43045 17.6937 1.8146 17.6223 2.24013C17.5481 2.68245 17.6333 3.08085 17.7943 3.41764C17.9458 3.73453 18.1613 3.99102 18.3474 4.18723C18.5282 4.37785 18.7462 4.57636 18.8996 4.72223L20.2776 3.27267ZM18.8907 0.705515C18.3623 0.741436 17.9061 0.916544 17.6522 1.00217C17.3512 1.10361 17.2727 1.10545 17.2249 1.09806L16.9193 3.07457C17.4949 3.16357 17.9896 2.99901 18.2911 2.89737C18.6395 2.77992 18.8149 2.71528 19.0264 2.70091L18.8907 0.705515ZM17.9021 2.64407C17.8706 2.69095 17.8253 2.67476 18.1503 2.55736C18.3837 2.47309 18.9664 2.29269 19.3749 1.77033L17.7994 0.538248C17.8036 0.53298 17.8056 0.55541 17.4709 0.676293C17.228 0.764036 16.6273 0.955321 16.2421 1.52857L17.9021 2.64407ZM18.8504 0.189554C18.0263 -0.0353085 17.174 -0.202551 16.3102 -0.21763L16.2753 1.78207C16.9107 1.79316 17.5861 1.91771 18.3239 2.11902L18.8504 0.189554ZM25.0857 3.06988C24.414 3.11158 23.4141 3.16319 22.552 3.90928L23.8608 5.42156C24.1528 5.16882 24.4908 5.11067 25.2097 5.06604L25.0857 3.06988ZM22.5544 3.90717C22.3067 4.12019 22.1327 4.17822 22.035 4.18697C21.968 4.19296 21.8379 4.18801 21.6177 4.00234L20.3283 5.53123C20.8855 6.00113 21.5292 6.24023 22.2133 6.17901C22.8665 6.12054 23.4206 5.8001 23.8584 5.42367L22.5544 3.90717ZM21.6179 4.00254C21.1609 3.61685 20.645 3.41733 20.0845 3.42071C19.5654 3.42384 19.0969 3.60177 18.7135 3.7874L19.5849 5.58758C19.8667 5.45114 20.0169 5.42116 20.0966 5.42068C20.1287 5.42048 20.1527 5.42506 20.1781 5.43473C20.2055 5.44515 20.2553 5.46958 20.3281 5.53103L21.6179 4.00254ZM18.7126 3.78784C17.1943 4.52466 15.6543 5.17498 14.0699 5.88462L14.8874 7.7099C16.4196 7.02363 18.0314 6.34153 19.5858 5.58714L18.7126 3.78784ZM14.0683 5.88535C10.4532 7.51231 6.83883 9.14103 3.22529 10.7715L4.04786 12.5945C7.6608 10.9643 11.2745 9.33586 14.8891 7.70916L14.0683 5.88535ZM3.32575 10.7325C3.04386 10.8247 2.75761 10.9223 2.52038 11.04C2.2772 11.1607 1.96829 11.3578 1.76493 11.7143C1.56029 12.0729 1.54965 12.4398 1.57175 12.7103C1.59309 12.9715 1.65728 13.2627 1.72158 13.5412L3.67032 13.0914C3.60181 12.7946 3.57278 12.6413 3.56511 12.5474C3.55819 12.4627 3.58273 12.564 3.50207 12.7054C3.42268 12.8445 3.32654 12.8727 3.40952 12.8315C3.49845 12.7874 3.65175 12.7301 3.9474 12.6335L3.32575 10.7325ZM1.72163 13.5415C1.78667 13.8229 1.82315 13.94 1.86931 14.1575C1.90737 14.3369 1.9206 14.4568 1.91816 14.5437C1.91601 14.6202 1.90221 14.6508 1.89353 14.6664C1.88483 14.682 1.84918 14.74 1.71833 14.8231L2.79115 16.511C3.15312 16.281 3.4433 15.9935 3.64006 15.6409C3.83685 15.2882 3.90815 14.9277 3.91737 14.5999C3.93349 14.0262 3.73925 13.3896 3.67027 13.0911L1.72163 13.5415ZM1.84211 14.7562C1.55695 14.8854 1.31565 15.0949 1.14773 15.3591L2.8357 16.4318C2.79499 16.4959 2.73649 16.5467 2.66737 16.578L1.84211 14.7562ZM1.14773 15.3591C0.979822 15.6233 0.892591 15.9307 0.89672 16.2437L2.89655 16.2174C2.89755 16.2933 2.8764 16.3678 2.8357 16.4318L1.14773 15.3591ZM1.38214 15.3731C1.43387 15.342 1.47863 15.3216 1.50713 15.3096C1.51981 15.3043 1.52985 15.3004 1.53146 15.2998C1.53647 15.2978 1.5282 15.301 1.52241 15.3034L2.26519 17.1603C2.25989 17.1624 2.2521 17.1654 2.25757 17.1633C2.25966 17.1625 2.27016 17.1584 2.28331 17.1529C2.31274 17.1405 2.35842 17.1197 2.41113 17.0881L1.38214 15.3731ZM0.932404 15.9567C0.596631 17.1298 0.887485 18.2757 1.03157 19.0547L2.99822 18.691C2.8175 17.7139 2.67925 17.1217 2.8552 16.507L0.932404 15.9567ZM1.0317 19.0554C1.09456 19.3939 1.28714 20.0696 2.00355 20.282C2.30852 20.3724 2.5835 20.3309 2.76116 20.2857C2.94123 20.2399 3.10634 20.1679 3.23286 20.1078L2.37447 18.3014C2.28746 18.3427 2.26012 18.3495 2.26838 18.3474C2.27424 18.3459 2.39808 18.3129 2.57214 18.3645C2.77737 18.4254 2.90826 18.5591 2.97072 18.6595C3.01784 18.7352 3.01266 18.7687 2.99809 18.6903L1.0317 19.0554ZM3.23394 20.1073C4.18434 19.6543 5.15084 19.2288 6.13278 18.7962L5.3265 16.9659C4.34965 17.3962 3.35541 17.8338 2.37339 18.3019L3.23394 20.1073ZM6.13208 18.7965C9.22856 17.4353 12.3256 16.075 15.4232 14.7157L14.6195 12.8843C11.5216 14.2437 8.42409 15.6042 5.3272 16.9656L6.13208 18.7965ZM14.9809 14.7992C15.1555 14.8062 15.3303 14.7903 15.5008 14.7517L15.0589 12.8011C15.0599 12.8009 15.0608 12.8008 15.0617 12.8008L14.9809 14.7992ZM14.8128 12.8921C14.6568 12.9745 14.3063 13.1742 14.1165 13.6166L15.9545 14.4052C15.9142 14.499 15.8549 14.5711 15.8007 14.619C15.7554 14.6589 15.723 14.6732 15.7469 14.6606L14.8128 12.8921ZM14.5299 13.1482L11.3532 15.01L12.3645 16.7355L15.5411 14.8737L14.5299 13.1482ZM11.4049 14.9817L6.6214 17.4187L7.52929 19.2008L12.3128 16.7638L11.4049 14.9817ZM6.90526 17.3243C6.10168 17.463 5.37467 17.7454 4.72961 18.0186C4.0542 18.3046 3.50368 18.5631 2.90976 18.7551L3.52511 20.6581C4.23012 20.4302 4.92334 20.1085 5.50956 19.8602C6.12612 19.5991 6.6786 19.393 7.24542 19.2952L6.90526 17.3243ZM2.91038 18.7549C2.67106 18.8322 2.4032 18.9402 2.17929 19.1112C1.94014 19.2938 1.63558 19.648 1.66384 20.1724C1.68772 20.6157 1.94522 20.915 2.0781 21.0505C2.232 21.2074 2.41437 21.3386 2.57126 21.4419L3.67123 19.7716C3.61723 19.736 3.57651 19.707 3.54661 19.6839C3.51577 19.66 3.50476 19.6489 3.50601 19.6501C3.50721 19.6514 3.51405 19.6584 3.52426 19.6714C3.53437 19.6842 3.55024 19.7059 3.56773 19.7366C3.60205 19.7968 3.65258 19.9096 3.66094 20.0648C3.66987 20.2305 3.62727 20.3844 3.55719 20.5069C3.49337 20.6185 3.42155 20.679 3.39311 20.7007C3.34822 20.735 3.36185 20.7108 3.52449 20.6583L2.91038 18.7549ZM2.35178 21.2454C2.74353 21.7174 3.21415 21.9905 3.64441 22.1736C4.02931 22.3375 4.50877 22.4734 4.77692 22.5642L5.41869 20.67C4.97834 20.5208 4.72587 20.4603 4.42779 20.3334C4.17506 20.2258 4.01165 20.1137 3.89071 19.968L2.35178 21.2454ZM5.6123 22.4746C5.59197 22.4868 5.57552 22.4956 5.56767 22.4998C5.56379 22.5019 5.56073 22.5034 5.56044 22.5036C5.55908 22.5043 5.5618 22.5029 5.56407 22.5017C5.57388 22.4966 5.62004 22.4726 5.6742 22.4347L4.52727 20.7962C4.58045 20.759 4.62564 20.7355 4.63447 20.7309C4.63649 20.7298 4.63897 20.7285 4.63737 20.7294C4.63683 20.7296 4.63353 20.7313 4.62941 20.7335C4.62107 20.738 4.60413 20.7471 4.58331 20.7596L5.6123 22.4746ZM4.67621 22.5208C5.20677 22.7696 5.77801 23.0477 6.34701 23.2987L7.15427 21.4689C6.61291 21.23 6.09275 20.9761 5.52526 20.71L4.67621 22.5208ZM6.3444 23.2976C6.6261 23.4228 7.1028 23.6098 7.62884 23.5315C8.26421 23.4369 8.70265 23.0119 8.96246 22.4705L7.15932 21.6053C7.12581 21.6751 7.11638 21.6652 7.15595 21.6322C7.1763 21.6153 7.20431 21.5968 7.23911 21.5813C7.27376 21.566 7.30673 21.5574 7.33423 21.5533C7.38599 21.5456 7.40253 21.5559 7.36293 21.5464C7.32274 21.5367 7.25759 21.5148 7.15687 21.47L6.3444 23.2976ZM8.96407 22.4672C8.96209 22.4713 8.94133 22.5131 8.88595 22.5627C8.82695 22.6155 8.75078 22.6569 8.66799 22.6777C8.51416 22.7164 8.4461 22.6611 8.52616 22.6979L9.36047 20.8802C9.05586 20.7404 8.63487 20.6238 8.18014 20.7382C7.68148 20.8636 7.34556 21.2134 7.15771 21.6086L8.96407 22.4672ZM8.52096 22.6955C9.37277 23.0924 10.2352 23.0815 10.9891 22.9512L10.6487 20.9804C10.1194 21.0718 9.71269 21.0443 9.36566 20.8826L8.52096 22.6955ZM10.1113 21.2592L10.1108 21.2597L11.5259 22.6731L11.5265 22.6725L10.1113 21.2592ZM10.7471 22.9639C10.7702 22.9655 10.7885 22.966 10.7968 22.9662C10.8011 22.9663 10.8045 22.9663 10.8051 22.9663C10.8067 22.9664 10.8041 22.9663 10.8019 22.9663C10.7973 22.9662 10.7802 22.9659 10.7584 22.9645C10.7361 22.9631 10.7008 22.9602 10.6578 22.953L10.9866 20.9802C10.943 20.9729 10.9071 20.9699 10.8843 20.9685C10.8617 20.9671 10.844 20.9667 10.8388 20.9666C10.8362 20.9666 10.8333 20.9665 10.8346 20.9666C10.8348 20.9666 10.8379 20.9666 10.8418 20.9667C10.8495 20.9669 10.8671 20.9673 10.8896 20.9689L10.7471 22.9639ZM10.189 22.7406L10.1923 22.7432L11.4586 21.1952L11.4554 21.1926L10.189 22.7406ZM11.2406 22.879L11.2451 22.8769L10.4147 21.0574L10.4103 21.0595L11.2406 22.879ZM10.7431 22.9634C10.9977 22.9856 11.5801 23.0356 12.1152 22.6436L10.9333 21.0302C10.9564 21.0133 10.9823 20.9995 11.0081 20.9898C11.0328 20.9805 11.05 20.9777 11.0543 20.9771C11.0576 20.9766 11.0499 20.978 11.0256 20.9776C11.0006 20.9772 10.9672 20.9754 10.9168 20.971L10.7431 22.9634ZM11.5243 22.8369C11.9233 22.8369 12.0709 22.8154 12.2933 22.8379L12.4952 20.8482C12.144 20.8125 11.7059 20.8369 11.5243 20.8369V22.8369ZM12.2927 22.8379C12.7034 22.8798 13.1028 22.8749 13.463 22.8618C13.8492 22.8478 14.1445 22.8275 14.4763 22.8238C15.1024 22.8168 15.5808 22.8809 16.0145 23.1206L16.9819 21.3702C16.1 20.8827 15.2094 20.8154 14.4539 20.8239C14.0949 20.8279 13.6962 20.8521 13.3905 20.8632C13.0587 20.8752 12.7681 20.876 12.4959 20.8482L12.2927 22.8379ZM16.0157 23.1213C16.5943 23.44 17.1206 23.215 17.3466 23.0896C17.4568 23.0283 17.5589 22.9562 17.6025 22.9261C17.6671 22.8816 17.6707 22.8813 17.6582 22.8876L16.7501 21.1057C16.6832 21.1398 16.6253 21.175 16.5807 21.2035C16.5366 21.2318 16.4956 21.26 16.4671 21.2797C16.4343 21.3023 16.4159 21.315 16.3976 21.3271C16.3806 21.3383 16.3747 21.3416 16.3757 21.341C16.3767 21.3405 16.392 21.3319 16.4189 21.3218C16.4463 21.3114 16.4916 21.2971 16.5516 21.2892C16.6134 21.281 16.687 21.2802 16.7672 21.2945C16.8479 21.3089 16.92 21.3361 16.9807 21.3695L16.0157 23.1213ZM17.6598 22.8869C20.0316 21.6729 22.4007 20.4536 24.767 19.2288L23.8477 17.4526C21.4841 18.676 19.1177 19.8939 16.7486 21.1065L17.6598 22.8869ZM24.7655 19.2296C27.9068 17.6108 31.0472 15.9922 34.1862 14.3738L33.2697 12.5961C30.1308 14.2145 26.9906 15.833 23.8493 17.4518L24.7655 19.2296ZM34.1878 14.373C34.172 14.3812 34.1702 14.3806 34.2033 14.3678C34.218 14.3621 34.2341 14.3561 34.257 14.3474C34.2781 14.3395 34.3053 14.3293 34.3333 14.3184C34.4181 14.2855 34.6458 14.1985 34.8457 14.0309C35.0978 13.8196 35.3555 13.4301 35.2722 12.9089C35.2085 12.5103 34.9645 12.2182 34.7891 12.0396L33.3622 13.441C33.3952 13.4747 33.3934 13.4786 33.378 13.4541C33.3632 13.4304 33.3175 13.3514 33.2973 13.2246C33.2748 13.0843 33.2901 12.9238 33.3584 12.7708C33.4219 12.6287 33.5092 12.5414 33.5608 12.4982C33.6108 12.4563 33.6478 12.4383 33.6482 12.4382C33.6502 12.4371 33.6412 12.4417 33.6088 12.4543C33.5933 12.4603 33.5767 12.4665 33.5546 12.4748C33.5344 12.4824 33.5077 12.4924 33.481 12.5028C33.4311 12.5221 33.3513 12.5539 33.2682 12.5969L34.1878 14.373ZM35.0756 12.7403V12.7358H33.0756V12.7403H35.0756ZM34.9713 12.2911C34.6141 11.5717 34.3434 10.9319 34.2382 10.2662L32.2627 10.5785C32.4176 11.5582 32.8039 12.4232 33.18 13.1805L34.9713 12.2911ZM33.9576 11.1295C33.9817 11.1053 34.0007 11.0839 34.0137 11.0686C34.0201 11.0611 34.0252 11.0548 34.0285 11.0508C34.0301 11.0487 34.0315 11.0471 34.0324 11.046C34.0331 11.045 34.0338 11.0441 34.0339 11.0441L32.4721 9.79473C32.4704 9.7969 32.4791 9.78587 32.4899 9.7732C32.5021 9.75884 32.5201 9.73845 32.5433 9.71525L33.9576 11.1295ZM34.2507 10.3519C34.1967 9.55402 33.9265 8.85823 33.6383 8.26093L31.837 9.12988C32.0783 9.63023 32.2263 10.0585 32.2553 10.487L34.2507 10.3519ZM33.6364 8.25687C33.4921 7.96129 33.2255 7.5174 32.7 7.31506C32.1653 7.1092 31.6566 7.26371 31.3077 7.41893L32.1206 9.24628C32.2022 9.20999 32.2236 9.21067 32.2013 9.21367C32.1697 9.21793 32.0855 9.22159 31.9814 9.1815C31.8784 9.14186 31.8199 9.08404 31.8013 9.06259C31.7883 9.04763 31.803 9.0602 31.8389 9.13393L33.6364 8.25687ZM31.3071 7.41916C30.0927 7.96022 28.8447 8.45496 27.5953 8.90175L28.2688 10.7849C29.5607 10.3229 30.856 9.80969 32.1211 9.24605L31.3071 7.41916ZM27.5953 8.90177C26.9345 9.13813 26.2317 9.46764 25.6772 9.69705C25.0792 9.94451 24.5366 10.1306 23.9813 10.2059L24.2501 12.1878C25.0607 12.0779 25.7909 11.8145 26.4419 11.5451C27.1365 11.2577 27.659 11.0031 28.2689 10.7849L27.5953 8.90177ZM24.2571 10.2069C24.2344 10.2037 24.2163 10.2019 24.2079 10.2011C24.2036 10.2007 24.2002 10.2004 24.1996 10.2004C24.198 10.2002 24.2004 10.2004 24.2024 10.2006C24.207 10.201 24.2219 10.2024 24.2409 10.2048C24.2606 10.2074 24.2883 10.2115 24.3211 10.2186L23.902 12.1742C23.9356 12.1814 23.9639 12.1857 23.9843 12.1883C24.004 12.1908 24.0196 12.1922 24.0248 12.1927C24.0272 12.1929 24.03 12.1932 24.0286 12.193C24.0284 12.193 24.0253 12.1928 24.0214 12.1924C24.0137 12.1917 23.9963 12.19 23.9743 12.1868L24.2571 10.2069ZM24.6073 12.0649L24.608 12.0645L23.6165 10.3275L23.6158 10.3279L24.6073 12.0649ZM25.1105 11.1368C25.1163 11.2347 25.1035 11.4184 24.9827 11.6105C24.8641 11.7988 24.7088 11.8875 24.6352 11.9221C24.5806 11.9477 24.5276 11.9612 24.5922 11.942C24.6174 11.9345 24.7517 11.8974 24.8894 11.8206L23.9156 10.0737C23.9963 10.0287 24.0644 10.0124 24.0225 10.0248C24.0201 10.0256 23.8993 10.0581 23.7849 10.1118C23.6514 10.1745 23.444 10.3004 23.29 10.5451C23.1337 10.7935 23.102 11.0527 23.114 11.2552L25.1105 11.1368ZM24.889 11.8209L31.6291 8.06803L30.6562 6.32063L23.916 10.0735L24.889 11.8209ZM32.1419 7.23356C32.1765 6.35202 31.8557 5.59419 31.6209 5.04503L29.782 5.83152C30.0272 6.40481 30.1582 6.77823 30.1434 7.15509L32.1419 7.23356ZM30.1083 4.63319C30.214 4.5553 30.3347 4.49859 30.4639 4.46721L30.936 6.4107C31.0662 6.37907 31.188 6.32189 31.2946 6.24335L30.1083 4.63319ZM31.6195 5.83185L31.6198 5.83116L29.7807 5.04538L29.7804 5.04606L31.6195 5.83185ZM31.6304 5.07104C31.4126 4.51943 31.0427 3.98744 30.4241 3.72386C29.8076 3.46121 29.1685 3.5609 28.6208 3.77984L29.3632 5.63694C29.6344 5.52853 29.6879 5.58419 29.6401 5.56382C29.5902 5.54252 29.665 5.53914 29.7701 5.8055L31.6304 5.07104ZM28.6093 3.78454C28.1634 3.96928 27.6882 4.07347 27.2059 4.09225L27.2837 6.09074C28.0023 6.06275 28.7103 5.90752 29.3748 5.63224L28.6093 3.78454ZM28.2448 5.09149V5.08964H26.2448V5.09149H28.2448ZM26.9031 4.14982L26.8988 4.15138L27.5822 6.03102L27.5865 6.02946L26.9031 4.14982ZM27.321 4.09445L26.8542 4.05675L26.6932 6.05026L27.16 6.08796L27.321 4.09445ZM26.9827 4.0756C26.8717 4.05186 26.7461 3.98911 26.5225 3.82168C26.3483 3.69131 25.9889 3.38818 25.6271 3.19041L24.6678 4.94532C24.8628 5.05194 24.9882 5.17146 25.3239 5.42274C25.61 5.63694 26.0192 5.91482 26.5647 6.03142L26.9827 4.0756ZM24.8305 5.0163L24.8308 5.0164L25.4647 3.11952L25.4644 3.11942L24.8305 5.0163ZM35.0077 13.715C34.6403 13.7371 34.3155 13.8812 34.0742 14.0078L35.0038 15.7787C35.0779 15.7398 35.1249 15.7202 35.1512 15.711C35.1775 15.7018 35.1665 15.709 35.1278 15.7114L35.0077 13.715ZM34.0745 14.0077C31.5967 15.3073 29.0995 16.5631 26.5935 17.8396L27.5013 19.6217C29.995 18.3515 32.5116 17.0858 35.0035 15.7788L34.0745 14.0077ZM26.5926 17.84C23.6611 19.337 20.7112 20.8253 17.7812 22.3429L18.701 24.1188C21.6246 22.6046 24.5587 21.1243 27.5022 19.6213L26.5926 17.84ZM17.7852 22.3408C17.8614 22.3018 17.9329 22.2882 17.8028 22.3225C17.7443 22.3379 17.5611 22.3834 17.3836 22.4774C17.1922 22.5788 16.8734 22.808 16.7588 23.251C16.6518 23.6648 16.7887 24.0225 16.9044 24.2385L18.6676 23.2945C18.6683 23.2959 18.6906 23.3368 18.706 23.4108C18.7224 23.4893 18.7318 23.61 18.6951 23.7519C18.6138 24.0659 18.3896 24.2078 18.3199 24.2447C18.264 24.2743 18.2293 24.2783 18.3121 24.2565C18.3349 24.2505 18.3932 24.2356 18.4455 24.22C18.4964 24.2047 18.5929 24.1742 18.6969 24.1209L17.7852 22.3408ZM16.9051 24.2398C16.9726 24.3655 17.0099 24.5152 17.0232 24.7456C17.03 24.8645 17.03 24.9917 17.0282 25.1477C17.0265 25.2938 17.0231 25.4765 17.0278 25.658L19.0271 25.6053C19.0236 25.4719 19.0261 25.3391 19.0281 25.1704C19.0299 25.0114 19.031 24.8243 19.0199 24.6307C18.9972 24.2361 18.922 23.7681 18.6669 23.2932L16.9051 24.2398ZM18.0275 24.6316C17.8619 24.6316 17.7331 24.6726 17.6596 24.7017C17.5879 24.7301 17.5358 24.7607 17.5236 24.7678C17.517 24.7716 17.509 24.7764 17.5135 24.7737C17.5145 24.7731 17.5243 24.7672 17.5369 24.7602C17.5584 24.7481 17.6222 24.7127 17.7104 24.6833L18.3428 26.5807C18.4312 26.5513 18.4951 26.5158 18.5168 26.5037C18.5294 26.4966 18.5393 26.4906 18.5404 26.49C18.5449 26.4873 18.5371 26.492 18.5305 26.4958C18.5185 26.5028 18.4665 26.5333 18.395 26.5616C18.3216 26.5907 18.1929 26.6316 18.0275 26.6316V24.6316ZM17.0266 25.632V25.6346H19.0266V25.632H17.0266ZM17.0269 25.6118C17.0198 25.9218 17.0134 26.2313 17.0076 26.5403L19.0072 26.5784C19.013 26.2714 19.0194 25.9645 19.0264 25.6573L17.0269 25.6118ZM17.0169 26.6972C17.1067 27.3427 17.3433 27.9591 17.7085 28.4989L19.3651 27.3784C19.1712 27.0917 19.0455 26.7644 18.9978 26.4216L17.0169 26.6972ZM18.3235 28.9157L18.3266 28.9163L18.7532 26.9624L18.75 26.9617L18.3235 28.9157ZM18.141 27.0224L18.1387 27.0233L18.9366 28.8573L18.9388 28.8563L18.141 27.0224ZM17.7381 28.5409L18.0954 29.0166L19.6945 27.8154L19.3372 27.3397L17.7381 28.5409ZM18.1137 29.0402L18.9511 30.0884L20.5137 28.8401L19.6763 27.7919L18.1137 29.0402ZM18.743 29.6093C18.8307 30.208 19.0897 30.9467 19.8725 31.2279C20.207 31.3481 20.5333 31.3386 20.7889 31.3017C21.0463 31.2645 21.3026 31.1884 21.534 31.1093L20.8868 29.2169C20.7963 29.2478 20.7192 29.2717 20.6529 29.2895C20.5862 29.3074 20.5374 29.3172 20.5028 29.3222C20.468 29.3273 20.4569 29.326 20.4637 29.3264C20.4717 29.3268 20.5034 29.3294 20.5487 29.3457C20.5964 29.3628 20.6457 29.3903 20.6894 29.4274C20.7318 29.4635 20.755 29.4968 20.7644 29.5125C20.7727 29.5265 20.7679 29.5227 20.7575 29.4893C20.7472 29.456 20.7339 29.4014 20.7218 29.3192L18.743 29.6093ZM21.5345 31.1091C24.5625 30.0716 27.6126 29.1212 30.6835 28.1286L30.0684 26.2255C27.0242 27.2095 23.9362 28.1721 20.8863 29.2171L21.5345 31.1091ZM29.6583 27.8735L29.8348 28.0553L31.27 26.6625L31.0936 26.4806L29.6583 27.8735ZM30.7094 28.3465C30.7103 28.3463 30.7119 28.3461 30.7138 28.3458L30.3959 26.3712L30.3953 26.3713L30.7094 28.3465ZM30.1271 26.4546L26.7945 28.0317L27.6501 29.8395L30.9826 28.2624L30.1271 26.4546ZM26.9643 27.9695C26.2805 28.1521 25.6852 28.465 25.1733 28.7539L26.1563 30.4957C26.6417 30.2217 27.054 30.0156 27.4803 29.9018L26.9643 27.9695ZM25.7757 28.631C25.5198 28.6024 25.261 28.645 25.0278 28.754L25.8746 30.5659C25.7746 30.6126 25.6636 30.6309 25.5539 30.6186L25.7757 28.631ZM25.0278 28.754C24.7945 28.863 24.5959 29.0343 24.4536 29.2489L26.1209 30.3536C26.0599 30.4457 25.9747 30.5191 25.8746 30.5659L25.0278 28.754ZM24.9386 28.864C23.5735 29.3718 22.2435 29.9695 20.9574 30.653L21.896 32.4191C23.1042 31.777 24.3536 31.2155 25.6359 30.7385L24.9386 28.864ZM21.8517 30.6308C21.5982 30.5118 21.3087 30.4951 21.0432 30.5841L21.679 32.4804C21.4567 32.5549 21.2141 32.5409 21.0017 32.4412L21.8517 30.6308ZM21.0432 30.5841C20.7777 30.6731 20.5568 30.861 20.4263 31.1087L22.1958 32.0408C22.0865 32.2484 21.9014 32.4058 21.679 32.4804L21.0432 30.5841ZM21.2027 30.5807C20.723 30.633 20.2724 30.8365 19.916 31.1618L21.2643 32.639C21.3073 32.5997 21.3617 32.5752 21.4195 32.5689L21.2027 30.5807ZM20.371 30.9247C20.1524 30.9738 19.7384 31.0671 19.384 31.2966C19.1902 31.4221 18.9838 31.6062 18.8337 31.8729C18.6801 32.1459 18.6183 32.4476 18.6319 32.7525L20.6299 32.6631C20.6312 32.6918 20.6252 32.7675 20.5768 32.8536C20.5319 32.9334 20.4799 32.9697 20.4711 32.9754C20.4665 32.9784 20.4873 32.9646 20.5543 32.9426C20.6201 32.9209 20.7009 32.9004 20.8094 32.8761L20.371 30.9247ZM18.6319 32.7525C18.6844 33.9266 18.2841 34.9534 17.8933 36.3657L19.8209 36.8991C20.143 35.7351 20.7009 34.2507 20.6299 32.6632L18.6319 32.7525ZM18.5413 35.6836L18.5405 35.6839L19.1719 37.5816L19.1728 37.5813L18.5413 35.6836ZM17.9889 36.1349C17.7774 36.5034 17.6841 36.928 17.7215 37.3513L19.7137 37.1749C19.7124 37.1594 19.7158 37.144 19.7235 37.1305L17.9889 36.1349ZM17.7215 37.3513C17.759 37.7745 17.9255 38.1761 18.1985 38.5017L19.7311 37.2168C19.7212 37.2049 19.7151 37.1903 19.7137 37.1749L17.7215 37.3513ZM18.1971 38.5001C18.4118 38.7572 18.7136 38.9418 19.0779 38.9803C19.3991 39.0142 19.6635 38.9221 19.8125 38.8585C19.9611 38.7952 20.1016 38.7113 20.1623 38.6763C20.2547 38.623 20.2586 38.6246 20.2375 38.6322L19.5538 36.7527C19.4608 36.7865 19.3804 36.8254 19.3199 36.8569C19.2595 36.8883 19.2029 36.9208 19.1629 36.9439C19.1171 36.9703 19.0902 36.986 19.0631 37.0008C19.0378 37.0146 19.028 37.0188 19.0281 37.0188C19.0289 37.0184 19.0345 37.0161 19.0443 37.0128C19.054 37.0096 19.0697 37.0049 19.0905 37.0004C19.1318 36.9916 19.2006 36.9821 19.288 36.9913C19.3793 37.001 19.4732 37.0293 19.5598 37.0779C19.6442 37.1252 19.7001 37.1796 19.7325 37.2184L18.1971 38.5001ZM20.2365 38.6326C24.7644 36.9909 29.2885 35.3388 33.8087 33.6763L33.1183 31.7992C28.601 33.4607 24.0798 35.1117 19.5548 36.7524L20.2365 38.6326ZM33.8075 33.6768C33.9197 33.6356 34.0484 33.5973 34.2113 33.5503C34.363 33.5066 34.5522 33.4533 34.7344 33.3918C35.075 33.277 35.5844 33.0754 35.953 32.6405L34.4273 31.3474C34.4332 31.3404 34.378 31.4013 34.0953 31.4967C33.9658 31.5404 33.8287 31.5791 33.6574 31.6285C33.4972 31.6747 33.306 31.7305 33.1195 31.7988L33.8075 33.6768ZM35.954 32.6394C36.5032 31.9895 36.3186 31.2095 36.2446 30.9039C36.2216 30.8086 36.1954 30.7122 36.1749 30.6355C36.1529 30.5532 36.1354 30.4863 36.1212 30.4237C36.0914 30.2925 36.09 30.2366 36.0911 30.2199L34.0952 30.0918C34.0759 30.3915 34.1253 30.6659 34.1708 30.8665C34.1943 30.9698 34.2206 31.0692 34.2428 31.1521C34.2664 31.2406 34.2847 31.3082 34.3007 31.3743C34.3163 31.4386 34.3254 31.4848 34.3304 31.5194C34.3355 31.554 34.3345 31.5651 34.3347 31.5595C34.3358 31.5345 34.3501 31.4388 34.4264 31.3485L35.954 32.6394ZM36.0759 30.3404C36.1254 30.077 36.1796 29.7933 36.2299 29.5243L34.264 29.1565C34.2123 29.4325 34.1628 29.6918 34.1103 29.9713L36.0759 30.3404ZM36.1414 29.7876C36.1574 29.7554 36.0992 29.8874 35.9926 30.0066C35.8579 30.1571 35.7097 30.2319 35.6191 30.2681L34.8763 28.4112C34.7852 28.4476 34.6367 28.5225 34.5019 28.6733C34.395 28.7927 34.3366 28.925 34.3525 28.8932L36.1414 29.7876ZM36.1987 29.649C36.2861 29.3801 36.4448 29.1215 36.6882 28.7626C36.9086 28.4377 37.2278 27.9922 37.4446 27.4832L35.6045 26.6994C35.4816 26.9881 35.2982 27.249 35.0331 27.6399C34.791 27.9969 34.4811 28.4637 34.2967 29.0303L36.1987 29.649ZM37.3362 27.6755L38.8857 25.5225L37.2624 24.3542L35.7129 26.5071L37.3362 27.6755ZM38.9804 25.3609C39.029 25.2566 39.1242 25.1523 39.4144 24.9374C39.6478 24.7645 40.1255 24.4482 40.4557 23.9814L38.8229 22.8264C38.7243 22.9657 38.5839 23.0637 38.2242 23.3301C37.9213 23.5544 37.4482 23.9143 37.1677 24.5158L38.9804 25.3609ZM39.3162 22.4575L39.2962 22.4644L39.9424 24.3571L39.9624 24.3503L39.3162 22.4575ZM40.1012 24.287L40.1168 24.2784L39.153 22.5259L39.1374 22.5345L40.1012 24.287ZM40.1578 24.2545C40.7872 23.8684 41.2114 23.3605 41.5476 22.8648C41.7135 22.6203 41.8663 22.3659 42.0078 22.129C42.1534 21.8852 42.2891 21.6566 42.4387 21.4269L40.7628 20.3354C40.5877 20.6043 40.4305 20.8693 40.2908 21.1033C40.1469 21.3442 40.0217 21.5517 39.8925 21.7421C39.6387 22.1162 39.4047 22.3702 39.112 22.5497L40.1578 24.2545ZM41.3071 19.9252L37.1141 21.2134L37.7014 23.1252L41.8944 21.837L41.3071 19.9252ZM37.3421 21.1715C37.051 21.1906 36.7739 21.2327 36.5148 21.2828L36.8946 23.2464C37.099 23.2069 37.2895 23.1793 37.4734 23.1672L37.3421 21.1715ZM37.2044 23.1309C37.4409 22.9945 37.6483 22.8129 37.8148 22.5965L36.2297 21.3769C36.223 21.3856 36.2146 21.3929 36.2051 21.3984L37.2044 23.1309ZM37.4545 22.8885C37.6969 22.7723 37.9778 22.6416 38.2433 22.5089L37.3488 20.72C37.1026 20.8431 36.863 20.9541 36.59 21.085L37.4545 22.8885ZM38.2428 22.5091C38.875 22.1934 39.522 21.9509 40.2583 21.6472C40.9687 21.3542 41.7314 21.0151 42.4514 20.5371L41.3452 18.8709C40.7946 19.2364 40.1812 19.5155 39.4957 19.7983C38.836 20.0704 38.0672 20.3613 37.3493 20.7198L38.2428 22.5091ZM42.0806 18.7208C42.268 18.7555 42.4382 18.8526 42.5636 18.9962L41.0567 20.3112C41.2278 20.5073 41.4601 20.6398 41.716 20.6872L42.0806 18.7208ZM41.3325 20.5323C41.347 20.5402 41.3553 20.5447 41.3623 20.5486C41.3686 20.5522 41.3713 20.5539 41.372 20.5543L42.4246 18.8537C42.3678 18.8186 42.316 18.7905 42.2877 18.7751L41.3325 20.5323ZM42.847 20.0202C43.0569 19.3905 42.9612 18.7947 42.8877 18.4097L40.9232 18.785C40.9889 19.1289 40.985 19.2816 40.9496 19.3878L42.847 20.0202ZM41.0013 19.0247L41.0039 19.0301L42.812 18.1754L42.8095 18.17L41.0013 19.0247ZM42.8901 18.4147C42.8568 18.2404 42.8036 18.0352 42.7086 17.8369C42.6143 17.6398 42.4484 17.3871 42.1575 17.2104C41.4899 16.8051 40.8218 17.1274 40.4697 17.3629L41.5816 19.0254C41.66 18.9729 41.6522 18.9951 41.5737 19.0102C41.4704 19.0301 41.2942 19.0261 41.1196 18.92C40.9672 18.8275 40.9114 18.7145 40.9048 18.7006C40.8975 18.6855 40.9098 18.7069 40.9258 18.7908L42.8901 18.4147ZM40.4433 17.3812C40.2179 17.5427 39.9579 17.6494 39.684 17.6928L39.9971 19.6681C40.5782 19.576 41.1298 19.3497 41.608 19.0071L40.4433 17.3812ZM39.3147 17.8299C39.3131 17.8309 39.3128 17.8311 39.3121 17.8315L40.3624 19.5335C40.364 19.5326 40.3658 19.5314 40.3664 19.531L39.3147 17.8299ZM40.8359 18.7337C40.831 18.8296 40.8121 18.9245 40.7796 19.0155L38.8965 18.3417C38.863 18.4352 38.8436 18.5328 38.8386 18.6313L40.8359 18.7337ZM39.9132 17.6814C39.4546 17.6469 39.1963 17.6414 38.9467 17.5765C38.7559 17.527 38.6427 17.4572 38.5416 17.3189L36.9273 18.4996C37.7883 19.6768 39.1649 19.6307 39.7629 19.6758L39.9132 17.6814ZM37.7344 18.9093H37.737V16.9093H37.7344V18.9093ZM38.5452 17.3204C38.3999 17.121 38.1889 16.9218 37.8922 16.813C37.5922 16.703 37.3163 16.7263 37.1185 16.7745C36.9375 16.8187 36.7874 16.8928 36.7174 16.9276C36.6502 16.9609 36.6707 16.9515 36.6247 16.9741C36.6025 16.985 36.5973 16.9869 36.6009 16.9855L37.3414 18.8434C37.4081 18.8168 37.4663 18.789 37.5079 18.7685C37.5291 18.7581 37.5494 18.7479 37.5653 18.7398C37.5826 18.7311 37.595 18.7248 37.6071 18.7188C37.6655 18.6898 37.6445 18.7049 37.5923 18.7176C37.5232 18.7344 37.376 18.754 37.2035 18.6907C37.0343 18.6286 36.9496 18.5268 36.9287 18.4982L38.5452 17.3204ZM36.5983 16.9865C34.6475 17.7704 32.6972 18.5556 30.7475 19.3422L31.4958 21.197C33.4446 20.4107 35.394 19.6259 37.344 18.8423L36.5983 16.9865ZM31.0292 19.2739C30.7916 19.2959 30.5793 19.3487 30.3974 19.4062L30.9996 21.3133C31.0917 21.2843 31.1591 21.2704 31.214 21.2653L31.0292 19.2739ZM31.3942 21.0781C31.5378 20.939 31.7043 20.7433 31.8224 20.4719L29.9886 19.6737C29.9971 19.6543 30.0062 19.6403 30.0115 19.6332C30.0161 19.627 30.0153 19.6293 30.0028 19.6414L31.3942 21.0781ZM31.3659 20.9606C32.7766 20.229 34.1859 19.4949 35.5939 18.7582L34.6667 16.9861C33.2609 17.7217 31.8537 18.4547 30.4452 19.1851L31.3659 20.9606ZM35.5943 18.758C35.7003 18.7025 35.8376 18.6437 36.0196 18.5698C36.1854 18.5024 36.4006 18.4179 36.5949 18.33C36.7869 18.2431 37.0222 18.1256 37.2311 17.968C37.431 17.8173 37.7206 17.5451 37.8311 17.1151L35.894 16.6175C35.9462 16.4143 36.0668 16.3411 36.0268 16.3712C35.9959 16.3946 35.9204 16.4399 35.7706 16.5077C35.6231 16.5745 35.4653 16.6362 35.2671 16.7167C35.085 16.7907 34.867 16.8812 34.6664 16.9863L35.5943 18.758ZM37.8308 17.1163C37.9488 16.6594 37.8321 16.2591 37.6785 15.971C37.5365 15.7045 37.339 15.4873 37.1948 15.3383C37.1183 15.2592 37.0388 15.1813 36.9713 15.1151C36.9002 15.0453 36.8398 14.9857 36.7836 14.9273C36.6662 14.805 36.6115 14.7315 36.5874 14.6886L34.8434 15.6677C34.9927 15.9335 35.187 16.1521 35.3409 16.3124C35.4204 16.3952 35.5012 16.4745 35.5702 16.5423C35.6429 16.6137 35.7023 16.672 35.7571 16.7286C35.8111 16.7845 35.8499 16.8278 35.878 16.8628C35.9064 16.8982 35.9147 16.9137 35.9137 16.9119C35.9067 16.8989 35.8522 16.7793 35.8943 16.6163L37.8308 17.1163ZM36.5861 14.6863C36.4516 14.4482 36.2657 14.1894 35.9936 13.996C35.694 13.783 35.353 13.6942 35.0078 13.715L35.1281 15.7114C35.0929 15.7135 35.0409 15.7111 34.9804 15.6943C34.9194 15.6772 34.87 15.651 34.8349 15.6261C34.7745 15.5832 34.7851 15.5645 34.8447 15.6699L36.5861 14.6863ZM35.0679 13.7132H35.0677V15.7132H35.0679V13.7132ZM35.3896 31.8479C35.0785 31.8272 34.8008 31.9183 34.6085 31.9974L35.3695 33.8469C35.4036 33.8329 35.4116 33.8323 35.3989 33.8352C35.3871 33.8379 35.3354 33.8487 35.2564 33.8435L35.3896 31.8479ZM34.6075 31.9978C29.6842 34.0298 24.7562 36.0505 19.8237 38.0599L20.5782 39.9121C25.5136 37.9016 30.4444 35.8797 35.3705 33.8465L34.6075 31.9978ZM19.816 38.0631C19.646 38.134 19.1505 38.3354 18.9327 38.8543C18.7024 39.403 18.9373 39.908 19.0395 40.1151L20.833 39.23C20.8022 39.1675 20.8141 39.1765 20.8247 39.2314C20.838 39.2999 20.851 39.4516 20.7769 39.6283C20.7049 39.7997 20.5947 39.8896 20.5546 39.9183C20.5218 39.9417 20.5172 39.9376 20.5859 39.909L19.816 38.0631ZM19.0399 40.1158C19.5026 41.0518 19.8935 41.941 20.1094 42.8688L22.0574 42.4157C21.7876 41.2561 21.3121 40.199 20.8327 39.2293L19.0399 40.1158ZM20.9183 41.656L20.9178 41.6561L21.2454 43.6291C21.2446 43.6292 21.247 43.6288 21.2484 43.6286L20.9183 41.656ZM21.0816 43.6426H21.0834V41.6426H21.0816V43.6426ZM20.0834 42.6426V42.6437H22.0834V42.6426H20.0834ZM20.0885 42.7447C20.1041 42.8988 20.139 43.1221 20.1497 43.2045C20.1658 43.3282 20.1686 43.3956 20.1658 43.4399L22.1615 43.5702C22.1772 43.3304 22.1544 43.1105 22.133 42.9462C22.1062 42.7407 22.0917 42.6754 22.0782 42.5428L20.0885 42.7447ZM20.1659 43.4381C20.1537 43.6199 20.1462 43.8441 20.1792 44.0616C20.2104 44.2675 20.3027 44.639 20.6407 44.9155C20.9988 45.2086 21.4063 45.2144 21.6603 45.179C21.9096 45.1443 22.1518 45.0529 22.3595 44.9606L21.5472 43.133C21.3975 43.1995 21.3568 43.202 21.3842 43.1982C21.4162 43.1937 21.6626 43.1675 21.9072 43.3676C22.019 43.4591 22.0827 43.5618 22.1164 43.6362C22.1479 43.7057 22.1555 43.7548 22.1566 43.7619C22.1573 43.7665 22.1515 43.719 22.1614 43.5721L20.1659 43.4381ZM22.3601 44.9603C23.9886 44.2352 25.6268 43.53 27.2716 42.8217C28.9145 42.1143 30.5639 41.404 32.2052 40.6726L31.3912 38.8458C29.7632 39.5712 28.1253 40.2766 26.4806 40.9848C24.8379 41.6921 23.1883 42.4023 21.5466 43.1332L22.3601 44.9603ZM32.2053 40.6725C33.8705 39.9303 34.982 38.6122 35.6436 37.0058L33.7942 36.2442C33.2929 37.4614 32.5091 38.3474 31.3911 38.8458L32.2053 40.6725ZM34.6318 35.6288C34.6308 35.6289 34.6289 35.629 34.6269 35.6292L34.8042 37.6213C34.8044 37.6213 34.8048 37.6213 34.806 37.6212L34.6318 35.6288ZM35.0667 37.5616C35.1173 37.5426 35.1732 37.517 35.231 37.4823C35.2887 37.4476 35.3347 37.4121 35.3691 37.3825C35.3999 37.3559 35.4223 37.3332 35.427 37.3285C35.4296 37.3259 35.4327 37.3227 35.431 37.3244C35.4305 37.3249 35.4279 37.3276 35.4245 37.3309L34.0103 35.9167C34.0068 35.9203 34.004 35.9231 34.0033 35.9238C34.0014 35.9257 34.0044 35.9227 34.0068 35.9202C34.0112 35.9158 34.0334 35.8933 34.0639 35.867C34.098 35.8376 34.1437 35.8023 34.2012 35.7678C34.2587 35.7332 34.3142 35.7078 34.3645 35.689L35.0667 37.5616ZM35.4704 37.2818C36.5733 36.0198 36.6979 34.5371 36.5969 33.2158L34.6028 33.3682C34.6871 34.4717 34.5487 35.2972 33.9644 35.9658L35.4704 37.2818ZM36.5969 33.2149C36.5837 33.0439 36.5494 32.7502 36.392 32.4744C36.1866 32.1146 35.8255 31.8765 35.389 31.8478L35.2574 33.8434C35.1631 33.8372 35.0357 33.808 34.9072 33.7267C34.7794 33.6458 34.7 33.5445 34.6551 33.4659C34.6137 33.3934 34.6011 33.3398 34.5993 33.3316C34.597 33.3217 34.5999 33.3308 34.6028 33.3691L36.5969 33.2149ZM34.876 31.9512L34.8758 31.9513L35.7702 33.7401L35.7704 33.74L34.876 31.9512ZM40.7448 33.6501C40.1703 33.6544 39.7639 33.9615 39.5226 34.2225C39.2874 34.477 39.1268 34.7734 39.0259 34.9748L40.8139 35.8709C40.8514 35.796 40.886 35.7327 40.9192 35.6797C40.9529 35.6258 40.9776 35.5949 40.9914 35.5799C41.0056 35.5646 40.995 35.5805 40.9553 35.6018C40.9096 35.6264 40.8407 35.6495 40.7598 35.6501L40.7448 33.6501ZM39.0265 34.9736C38.8415 35.3415 38.6818 35.7923 38.5756 36.0516L40.4263 36.8097C40.5963 36.3948 40.6725 36.1521 40.8133 35.8721L39.0265 34.9736ZM38.8254 35.6933L38.8242 35.6944L40.1753 37.169L40.1765 37.168L38.8254 35.6933ZM38.5999 35.9955C38.5669 36.0636 38.5422 36.1152 38.5163 36.1669C38.4913 36.2166 38.4714 36.2541 38.4539 36.2841C38.4172 36.347 38.4064 36.3507 38.4232 36.3354C38.4498 36.3112 38.4917 36.2871 38.5327 36.2768C38.5642 36.269 38.5488 36.2813 38.4548 36.2664L38.1411 38.2416C38.7552 38.3392 39.3223 38.2208 39.7682 37.8156C40.1179 37.4978 40.3109 37.0509 40.3996 36.868L38.5999 35.9955ZM38.4548 36.2664C37.8935 36.1772 37.3267 36.3521 36.9169 36.6191C36.5313 36.8704 35.9953 37.4118 36.0765 38.2086L38.0662 38.0058C38.0802 38.143 38.0349 38.2424 38.0088 38.2834C37.9866 38.3181 37.9779 38.3149 38.0089 38.2947C38.0373 38.2762 38.0758 38.259 38.1139 38.2495C38.154 38.2395 38.1636 38.2452 38.141 38.2416L38.4548 36.2664ZM36.0764 38.2076C36.1075 38.5155 36.0251 38.8143 35.873 39.358C35.739 39.8367 35.5397 40.5459 35.7054 41.3343L37.6627 40.9229C37.6095 40.6701 37.6577 40.402 37.799 39.897C37.9221 39.457 38.1428 38.7657 38.0663 38.0068L36.0764 38.2076ZM36.0079 41.8654C36.2566 42.0936 36.5651 42.2278 36.9042 42.2368L36.9574 40.2376C37.0326 40.2396 37.1149 40.2551 37.1953 40.2888C37.274 40.3218 37.3284 40.3627 37.3601 40.3918L36.0079 41.8654ZM36.4127 40.3819C36.2478 40.4818 36.0574 40.6235 35.8875 40.8339L37.4435 42.0905C37.4401 42.0946 37.4369 42.0981 37.4342 42.1009C37.4314 42.1036 37.4296 42.1052 37.4291 42.1056C37.4282 42.1063 37.4333 42.102 37.449 42.0925L36.4127 40.3819ZM35.6982 41.2084C35.5793 41.6615 35.3345 42.45 35.5585 43.2952L37.4918 42.7827C37.4281 42.5427 37.4798 42.2989 37.6327 41.716L35.6982 41.2084ZM36.5252 44.039C36.5877 44.039 36.6378 44.033 36.6667 44.0289C36.6808 44.0269 36.6919 44.025 36.6966 44.0242C36.6991 44.0238 36.701 44.0234 36.7013 44.0234C36.7021 44.0232 36.7007 44.0235 36.6995 44.0237C36.6938 44.0247 36.6702 44.0289 36.6398 44.0323C36.6241 44.0341 36.6067 44.0357 36.5876 44.0369C36.5685 44.038 36.5485 44.0387 36.5278 44.0387V42.0387C36.5067 42.0387 36.4865 42.0393 36.4672 42.0405C36.4478 42.0417 36.4301 42.0433 36.4142 42.0451C36.3832 42.0486 36.3592 42.0528 36.3531 42.0539C36.3518 42.0541 36.3503 42.0544 36.3511 42.0543C36.3512 42.0543 36.3531 42.0539 36.3554 42.0535C36.36 42.0527 36.3708 42.0509 36.3848 42.0489C36.4133 42.0448 36.463 42.039 36.5252 42.039V44.039ZM35.6172 43.452C35.8297 43.92 36.1395 44.5029 36.7485 44.7832C37.3592 45.0644 37.9953 44.9128 38.4458 44.7842L37.8967 42.8611C37.6933 42.9191 37.5828 42.9379 37.5239 42.9418C37.4773 42.945 37.5163 42.935 37.5848 42.9665C37.6525 42.9977 37.667 43.0317 37.6342 42.988C37.5948 42.9356 37.5313 42.8301 37.4383 42.6253L35.6172 43.452ZM38.447 44.7839C39.3164 44.5345 39.8116 43.99 40.0761 43.3595C40.1943 43.0777 40.2606 42.7946 40.3072 42.5615C40.3667 42.264 40.3762 42.1668 40.4259 41.9357L38.4707 41.5149C38.4442 41.6378 38.4219 41.7588 38.4024 41.8666C38.3819 41.9791 38.365 42.0745 38.3461 42.169C38.308 42.3592 38.2726 42.4884 38.2317 42.5859C38.1943 42.6752 38.1596 42.7192 38.1298 42.7469C38.1016 42.773 38.0394 42.8201 37.8955 42.8614L38.447 44.7839ZM40.3816 42.0844C40.5705 41.5934 40.7547 40.9845 40.6825 40.2421L38.6919 40.4358C38.72 40.7251 38.6593 40.9912 38.515 41.3662L40.3816 42.0844ZM39.3969 39.382L37.8085 39.8637L38.389 41.7776L39.9774 41.2959L39.3969 39.382ZM37.1226 40.6036L37.1217 40.608L39.074 41.0422L39.0749 41.0378L37.1226 40.6036ZM37.7464 39.8889C37.8121 39.8642 37.8625 39.857 37.8785 39.855C37.8885 39.8538 37.8944 39.8539 37.8498 39.8562C37.8195 39.8577 37.7437 39.8613 37.6602 39.8732C37.5717 39.8858 37.4526 39.9104 37.3219 39.9646L38.088 41.8121C38.0199 41.8403 37.9657 41.8499 37.943 41.8531C37.9254 41.8556 37.9166 41.8554 37.9532 41.8535C37.9756 41.8523 38.0484 41.8493 38.1241 41.8399C38.206 41.8297 38.321 41.8094 38.4492 41.7613L37.7464 39.8889ZM38.3279 41.6706C38.4829 41.5472 38.6513 41.3774 38.784 41.1415L37.0409 40.161C37.0518 40.1415 37.0635 40.1262 37.073 40.1156C37.0819 40.1057 37.0864 40.1026 37.082 40.1061L38.3279 41.6706ZM38.4175 41.5144C38.5608 41.4305 38.7469 41.3096 38.8382 41.2533C38.9575 41.1796 39.041 41.1341 39.1119 41.1044L38.3399 39.2594C38.124 39.3498 37.9358 39.4599 37.7876 39.5514C37.6114 39.6602 37.5341 39.714 37.4074 39.7882L38.4175 41.5144ZM39.1099 41.1053C40.3503 40.5894 41.1098 39.757 41.5564 38.7687C41.9811 37.8289 42.1067 36.7806 42.1819 35.8507L40.1885 35.6893C40.1146 36.6018 40.0045 37.3461 39.7339 37.945C39.4852 38.4954 39.0895 38.9477 38.3419 39.2586L39.1099 41.1053ZM42.185 35.7923C42.1849 35.7953 42.185 35.7846 42.1896 35.7515C42.1943 35.7171 42.2006 35.6797 42.2107 35.62C42.2268 35.5243 42.2602 35.336 42.2623 35.1415C42.2645 34.9425 42.2375 34.6271 42.0427 34.3192C41.8326 33.9872 41.516 33.8003 41.1978 33.7116L40.6609 35.6382C40.642 35.6329 40.5919 35.6162 40.5296 35.5735C40.4643 35.5287 40.4017 35.4662 40.3525 35.3884C40.3049 35.3131 40.2823 35.2434 40.2719 35.1954C40.262 35.1498 40.2624 35.1213 40.2625 35.12C40.2625 35.1186 40.2623 35.13 40.2583 35.1616C40.2541 35.1939 40.2481 35.2309 40.2386 35.2871C40.2302 35.3369 40.2179 35.4084 40.208 35.4802C40.1981 35.5532 40.1877 35.6461 40.1855 35.7477L42.185 35.7923ZM41.2047 33.7136C41.0567 33.6712 40.9035 33.6499 40.7496 33.6503L40.755 35.6503C40.7208 35.6504 40.6868 35.6456 40.654 35.6362L41.2047 33.7136ZM41.7523 34.6503V34.6501H39.7523V34.6503H41.7523ZM31.3333 39.5401C27.9777 41.2723 24.7968 42.95 21.5712 44.5522L22.4609 46.3434C25.705 44.732 28.9159 43.0388 32.2507 41.3173L31.3333 39.5401ZM21.5704 44.5527C21.0925 44.7906 20.5401 45.1619 20.3216 45.8079C20.0952 46.4777 20.3384 47.1012 20.5989 47.5551L22.3336 46.5597C22.2568 46.4259 22.2361 46.3563 22.2318 46.3366C22.2299 46.328 22.2406 46.3767 22.2163 46.4485C22.1933 46.5166 22.1621 46.536 22.1899 46.5109C22.2231 46.4809 22.302 46.4226 22.4618 46.343L21.5704 44.5527ZM20.5007 47.3177C20.7808 48.3567 21.5131 48.9596 22.2024 49.3558L23.1991 47.6219C22.728 47.3511 22.515 47.1058 22.4318 46.7971L20.5007 47.3177ZM21.7007 48.4889V48.4896H23.7007V48.4889H21.7007ZM23.0148 49.439L23.0154 49.4389L22.3873 47.54L22.3867 47.5402L23.0148 49.439ZM22.7013 49.4894C22.715 49.4894 22.562 49.4961 22.3897 49.4396C22.1771 49.3699 21.9445 49.2113 21.8073 48.9369L23.5961 48.0424C23.4588 47.7678 23.2261 47.6091 23.0133 47.5393C22.8409 47.4828 22.6878 47.4894 22.7013 47.4894V49.4894ZM22.5379 49.4761L22.5396 49.4764L22.8673 47.5034L22.8656 47.5032L22.5379 49.4761ZM21.9016 49.0874C22.3438 49.6809 22.9587 49.8687 23.4565 49.9224L23.6711 47.934C23.5729 47.9234 23.5286 47.9066 23.514 47.8997C23.5079 47.8968 23.5074 47.8959 23.5091 47.8973C23.5111 47.8989 23.5098 47.8985 23.5054 47.8925L21.9016 49.0874ZM23.0557 49.7895C23.9491 50.3166 24.9553 50.3439 25.8378 49.9501C26.7021 49.5644 27.3924 48.805 27.8068 47.839L25.9687 47.0506C25.7169 47.6377 25.3509 47.9773 25.0228 48.1237C24.7127 48.2621 24.3901 48.2546 24.0719 48.0669L23.0557 49.7895ZM27.3807 48.3149C28.2563 47.8188 29.0611 47.3403 29.9139 46.8698L28.9479 45.1186C28.0923 45.5906 27.2135 46.1109 26.3948 46.5748L27.3807 48.3149ZM29.9139 46.8699C30.2343 46.6931 30.6316 46.4321 30.9128 46.0216C31.2243 45.567 31.3287 45.027 31.2185 44.4435L29.2533 44.8147C29.2657 44.8805 29.2596 44.9042 29.2604 44.8998C29.2617 44.8933 29.2653 44.8877 29.2629 44.8912C29.2578 44.8987 29.2379 44.9247 29.1847 44.9668C29.1308 45.0096 29.0548 45.0597 28.948 45.1186L29.9139 46.8699ZM30.943 45.3362C31.0414 45.2378 31.097 45.1409 31.1241 45.0886C31.1377 45.0624 31.1471 45.0412 31.1508 45.0329C31.1519 45.0305 31.1527 45.0286 31.1533 45.0273C31.1538 45.0261 31.1542 45.0252 31.1542 45.0251C31.1547 45.0241 31.1533 45.0272 31.1519 45.0305C31.1489 45.0374 31.1406 45.056 31.1288 45.0793C31.1167 45.1033 31.0989 45.1362 31.0745 45.1737C31.0236 45.252 30.9473 45.3449 30.8366 45.428L29.6366 43.828C29.5256 43.9112 29.4492 44.0044 29.3982 44.0828C29.3738 44.1204 29.3559 44.1534 29.3437 44.1775C29.3319 44.2009 29.3236 44.2197 29.3205 44.2266C29.319 44.23 29.3177 44.2331 29.3181 44.2322C29.3181 44.2321 29.3185 44.2312 29.319 44.23C29.3196 44.2288 29.3204 44.2269 29.3214 44.2245C29.3251 44.2163 29.3345 44.1952 29.348 44.1691C29.375 44.1169 29.4306 44.0202 29.5288 43.922L30.943 45.3362ZM31.1772 44.9674C31.1454 45.0556 31.0686 45.0909 31.3159 44.89C31.4829 44.7544 31.9309 44.4097 32.0707 43.7889L30.1196 43.3493C30.1484 43.2218 30.2486 43.1803 30.055 43.3376C29.9875 43.3924 29.8374 43.5094 29.7061 43.6448C29.562 43.7934 29.3991 44.0027 29.2959 44.2887L31.1772 44.9674ZM32.0908 43.476C32.0675 43.2264 32.1532 42.9735 32.3737 42.4188C32.5665 41.9339 32.862 41.2097 32.7895 40.3467L30.7965 40.5142C30.8246 40.8485 30.7214 41.1612 30.5152 41.68C30.3367 42.129 30.0232 42.8468 30.0995 43.6623L32.0908 43.476ZM32.667 39.9446L32.6661 39.9428L30.918 40.9146L30.919 40.9164L32.667 39.9446Z" fill="#008080" mask="url(#path-1-inside-1_166_2432)"/>
</g>
</g>
</g>
</svg>
