<svg width="53" height="52" viewBox="0 0 53 52" fill="none" xmlns="http://www.w3.org/2000/svg">
<g id="Group 763">
<path id="Vector" d="M45.4824 24.6842C45.0912 38.775 38.1508 46.4237 28.0044 51C22.5138 48.525 17.9631 45.1487 14.8784 40.3408M45.4999 19.4211V7.91579L28.0107 1L10.5039 7.91579V23.4066C10.5039 26.8105 10.8714 29.8539 11.5638 32.5789" stroke="#008080" stroke-width="2" stroke-linejoin="round"/>
<path id="Vector_2" d="M8.33995 34.7263C6.6239 33.0723 4.60288 29.625 3.85672 29.4276C3.85672 29.4276 1.60947 35.2618 1.75695 39.1579C1.90319 43.0526 5.37654 45.2565 9.03612 43.3947C12.6957 41.5342 51.75 20.7368 51.75 20.7368L40.5013 18.1052L8.33995 34.7263Z" stroke="#008080" stroke-width="2" stroke-linecap="round" stroke-linejoin="round"/>
<path id="Vector_3" d="M31.7523 22.0526L20.5036 18.1052L18.0039 19.421L21.7535 27.3158" stroke="#008080" stroke-width="2" stroke-linecap="round" stroke-linejoin="round"/>
</g>
</svg>
